<?xml version="1.0" encoding="UTF-8"?>
<svg xmlns="http://www.w3.org/2000/svg" xmlns:xlink="http://www.w3.org/1999/xlink" width="34px" height="34px" viewBox="0 0 34 34" version="1.1">
<g id="surface1">
<path style=" stroke:none;fill-rule:nonzero;fill:rgb(100%,65.490198%,14.901961%);fill-opacity:1;" d="M 17.398438 14.34375 C 17.199219 14.34375 17.050781 14.195312 17.050781 13.996094 C 17.050781 13.796875 17.199219 13.648438 17.398438 13.648438 L 20.902344 13.648438 C 21.101562 13.648438 21.25 13.796875 21.25 13.996094 C 21.25 14.195312 21.101562 14.34375 20.902344 14.34375 Z M 17.398438 14.34375 "/>
<path style=" stroke:none;fill-rule:evenodd;fill:rgb(93.725491%,42.352942%,0%);fill-opacity:1;" d="M 16.683594 14.027344 C 16.683594 11.679688 14.78125 9.777344 12.433594 9.777344 C 10.085938 9.777344 8.183594 11.679688 8.183594 14.027344 C 8.183594 16.375 10.085938 18.277344 12.433594 18.277344 C 14.78125 18.277344 16.683594 16.375 16.683594 14.027344 Z M 16.683594 14.027344 "/>
<path style=" stroke:none;fill-rule:nonzero;fill:rgb(14.901961%,65.098041%,60.392159%);fill-opacity:1;" d="M 21.796875 13.296875 C 23.160156 13.296875 24.421875 13.796875 25.433594 14.59375 C 26.429688 15.390625 27.175781 16.5 27.542969 17.746094 C 28.222656 18.261719 28.753906 18.910156 29.136719 19.65625 C 29.535156 20.4375 29.75 21.332031 29.75 22.3125 C 29.75 23.921875 29.136719 25.398438 28.125 26.460938 C 27.125 27.507812 25.734375 28.15625 24.171875 28.15625 L 12.035156 28.15625 C 11.753906 28.15625 11.65625 28.15625 11.539062 28.15625 C 10.726562 28.171875 9.726562 28.1875 9.03125 27.972656 C 8.101562 27.707031 7.320312 27.125 6.773438 26.378906 C 6.226562 25.632812 5.910156 24.703125 5.910156 23.691406 C 5.910156 23.441406 5.925781 23.210938 5.976562 22.976562 C 6.160156 21.847656 6.789062 20.867188 7.636719 20.1875 C 8.46875 19.507812 9.53125 19.09375 10.59375 19.09375 C 10.65625 19.09375 10.707031 19.09375 10.773438 19.09375 C 10.90625 18.410156 11.15625 17.765625 11.523438 17.199219 C 11.96875 16.519531 12.566406 15.988281 13.296875 15.6875 C 13.996094 15.40625 14.742188 15.355469 15.4375 15.523438 C 15.953125 15.640625 16.46875 15.871094 16.898438 16.203125 C 17.382812 15.40625 18.03125 14.726562 18.792969 14.210938 C 19.671875 13.628906 20.703125 13.28125 21.832031 13.28125 Z M 21.796875 13.296875 "/>
<path style=" stroke:none;fill-rule:nonzero;fill:rgb(13.333334%,61.56863%,56.862748%);fill-opacity:1;" d="M 29.648438 23.375 C 29.453125 24.570312 28.902344 25.648438 28.105469 26.460938 C 27.109375 27.507812 25.714844 28.15625 24.15625 28.15625 L 12.019531 28.15625 C 11.738281 28.15625 11.636719 28.15625 11.523438 28.15625 C 10.707031 28.171875 9.710938 28.1875 9.015625 27.972656 C 8.085938 27.707031 7.304688 27.125 6.757812 26.378906 C 6.210938 25.632812 5.894531 24.703125 5.894531 23.691406 C 5.894531 23.574219 5.894531 23.476562 5.910156 23.375 L 29.667969 23.375 Z M 29.648438 23.375 "/>
<path style=" stroke:none;fill-rule:nonzero;fill:rgb(100%,65.490198%,14.901961%);fill-opacity:1;" d="M 12.136719 5.578125 C 12.136719 5.378906 12.285156 5.230469 12.484375 5.230469 C 12.683594 5.230469 12.832031 5.378906 12.832031 5.578125 L 12.832031 9.082031 C 12.832031 9.28125 12.683594 9.429688 12.484375 9.429688 C 12.285156 9.429688 12.136719 9.28125 12.136719 9.082031 Z M 12.136719 5.578125 "/>
<path style=" stroke:none;fill-rule:nonzero;fill:rgb(100%,65.490198%,14.901961%);fill-opacity:1;" d="M 6.292969 8.285156 C 6.160156 8.152344 6.160156 7.917969 6.292969 7.785156 C 6.425781 7.652344 6.65625 7.652344 6.789062 7.785156 L 9.265625 10.257812 C 9.398438 10.390625 9.398438 10.625 9.265625 10.757812 C 9.132812 10.890625 8.898438 10.890625 8.765625 10.757812 Z M 6.292969 8.285156 "/>
<path style=" stroke:none;fill-rule:nonzero;fill:rgb(100%,65.490198%,14.901961%);fill-opacity:1;" d="M 18.195312 7.804688 C 18.328125 7.671875 18.5625 7.671875 18.695312 7.804688 C 18.828125 7.9375 18.828125 8.167969 18.695312 8.300781 L 16.21875 10.773438 C 16.085938 10.90625 15.855469 10.90625 15.722656 10.773438 C 15.589844 10.640625 15.589844 10.410156 15.722656 10.277344 Z M 18.195312 7.804688 "/>
<path style=" stroke:none;fill-rule:nonzero;fill:rgb(100%,65.490198%,14.901961%);fill-opacity:1;" d="M 8.417969 17.101562 C 8.550781 16.96875 8.78125 16.96875 8.914062 17.101562 C 9.046875 17.234375 9.046875 17.464844 8.914062 17.597656 L 6.441406 20.070312 C 6.308594 20.203125 6.078125 20.203125 5.945312 20.070312 C 5.8125 19.9375 5.8125 19.707031 5.945312 19.574219 Z M 8.417969 17.101562 "/>
<path style=" stroke:none;fill-rule:nonzero;fill:rgb(100%,65.490198%,14.901961%);fill-opacity:1;" d="M 4.066406 14.34375 C 3.867188 14.34375 3.71875 14.195312 3.71875 13.996094 C 3.71875 13.796875 3.867188 13.648438 4.066406 13.648438 L 7.570312 13.648438 C 7.769531 13.648438 7.917969 13.796875 7.917969 13.996094 C 7.917969 14.195312 7.769531 14.34375 7.570312 14.34375 Z M 4.066406 14.34375 "/>
</g>
</svg>
